<svg width="18" height="22" viewBox="0 0 18 22" fill="none" xmlns="http://www.w3.org/2000/svg">
<path d="M13.3535 10.1218L15.5293 5.61839L16.0585 5.87407C16.4331 6.05504 16.8835 5.89808 17.0645 5.52351C17.2454 5.14891 17.0885 4.69851 16.7139 4.51754C16.5365 4.43181 9.52726 1.04538 9.0317 0.805952C8.65713 0.624983 8.20672 0.781945 8.02576 1.15651C7.84479 1.53108 8.00175 1.98148 8.37632 2.16245L8.90553 2.41814L6.72974 6.92159C-0.231682 7.56705 -2.11465 17.1719 4.35274 20.2965C10.8288 23.4254 17.1741 15.9749 13.3535 10.1218ZM7.24151 8.39842C7.52139 8.38916 7.77301 8.22537 7.89482 7.97325L10.262 3.07357L14.1727 4.96298L11.8055 9.86266C11.6837 10.1148 11.7118 10.4137 11.8784 10.6387C13.0548 12.2269 13.189 13.8731 12.8169 15.2646L8.51577 13.1866C8.80534 12.4928 8.50396 11.683 7.81896 11.352L4.02486 9.51896C4.83805 8.88053 5.90103 8.44287 7.24151 8.39842ZM5.00813 18.94C1.58416 17.2857 1.09516 13.3112 2.94218 10.669L7.09449 12.6752C6.80492 13.3689 7.1063 14.1788 7.7913 14.5097L12.2403 16.6592C10.8616 19.0657 7.91467 20.3443 5.00813 18.94Z" fill="#575757"/>
</svg>
