<svg width="16" height="18" viewBox="0 0 16 18" fill="none" xmlns="http://www.w3.org/2000/svg">
<path d="M13 12.4333C12.3667 12.4333 11.8 12.6833 11.3667 13.075L5.425 9.61662C5.46667 9.42495 5.5 9.23328 5.5 9.03328C5.5 8.83328 5.46667 8.64162 5.425 8.44995L11.3 5.02495C11.75 5.44162 12.3417 5.69995 13 5.69995C14.3833 5.69995 15.5 4.58328 15.5 3.19995C15.5 1.81662 14.3833 0.699951 13 0.699951C11.6167 0.699951 10.5 1.81662 10.5 3.19995C10.5 3.39995 10.5333 3.59162 10.575 3.78328L4.7 7.20828C4.25 6.79162 3.65833 6.53328 3 6.53328C1.61667 6.53328 0.5 7.64995 0.5 9.03328C0.5 10.4166 1.61667 11.5333 3 11.5333C3.65833 11.5333 4.25 11.275 4.7 10.8583L10.6333 14.325C10.5917 14.5 10.5667 14.6833 10.5667 14.8666C10.5667 16.2083 11.6583 17.2999 13 17.2999C14.3417 17.2999 15.4333 16.2083 15.4333 14.8666C15.4333 13.525 14.3417 12.4333 13 12.4333ZM13 2.36662C13.4583 2.36662 13.8333 2.74162 13.8333 3.19995C13.8333 3.65828 13.4583 4.03328 13 4.03328C12.5417 4.03328 12.1667 3.65828 12.1667 3.19995C12.1667 2.74162 12.5417 2.36662 13 2.36662ZM3 9.86662C2.54167 9.86662 2.16667 9.49162 2.16667 9.03328C2.16667 8.57495 2.54167 8.19995 3 8.19995C3.45833 8.19995 3.83333 8.57495 3.83333 9.03328C3.83333 9.49162 3.45833 9.86662 3 9.86662ZM13 15.7166C12.5417 15.7166 12.1667 15.3416 12.1667 14.8833C12.1667 14.425 12.5417 14.05 13 14.05C13.4583 14.05 13.8333 14.425 13.8333 14.8833C13.8333 15.3416 13.4583 15.7166 13 15.7166Z" fill="#575757"/>
</svg>
