<svg width="17" height="17" viewBox="0 0 17 17" fill="none" xmlns="http://www.w3.org/2000/svg">
<path d="M14.0308 11.7612C14.0227 11.7887 14.0143 11.8072 14.0055 11.8166C13.2175 13.1903 12.1259 14.1705 10.7308 14.7572C9.33566 15.3439 7.88277 15.4148 6.37209 14.9699C5.56713 14.7328 4.83301 14.3518 4.16974 13.8269C3.50647 13.302 2.96269 12.6715 2.53839 11.9354L1.15732 12.688C1.02171 12.7619 0.882234 12.7778 0.738885 12.7355C0.595536 12.6933 0.486911 12.6044 0.413009 12.4688C0.339107 12.3332 0.323267 12.1937 0.365487 12.0504L1.45672 8.34534C1.49894 8.20199 1.58785 8.09336 1.72346 8.01946C1.85907 7.94556 1.99855 7.92972 2.1419 7.97194L5.84692 9.06317C5.99027 9.10539 6.09889 9.1943 6.1728 9.32991C6.2467 9.46552 6.26254 9.605 6.22032 9.74835C6.1781 9.8917 6.08918 10.0003 5.95357 10.0742L4.48686 10.8735C4.77114 11.3527 5.13216 11.7646 5.5699 12.1092C6.00765 12.4539 6.49393 12.7049 7.02873 12.8625C7.76753 13.0801 8.50948 13.1039 9.25459 12.9339C9.9997 12.7638 10.6578 12.4214 11.2288 11.9066C11.3171 11.8307 11.5582 11.5512 11.9521 11.068C12.0336 10.9542 12.135 10.9152 12.2563 10.9509L13.8441 11.4186C13.9158 11.4397 13.9701 11.4841 14.0071 11.5519C14.044 11.6198 14.0519 11.6895 14.0308 11.7612ZM16.1862 5.20595L15.095 8.91097C15.0528 9.05432 14.9639 9.16295 14.8282 9.23685C14.6926 9.31075 14.5532 9.32659 14.4098 9.28437L10.7048 8.19314C10.5614 8.15092 10.4528 8.062 10.3789 7.9264C10.305 7.79079 10.2892 7.65131 10.3314 7.50796C10.3736 7.36461 10.4625 7.25598 10.5981 7.18208L12.0756 6.37694C11.482 5.38127 10.6312 4.72024 9.52298 4.39384C8.78418 4.17625 8.04223 4.15245 7.29712 4.32246C6.55201 4.49246 5.89393 4.83489 5.32287 5.34975C5.23461 5.42562 4.99351 5.70512 4.59956 6.18826C4.51811 6.30208 4.41673 6.34113 4.29543 6.3054L2.64968 5.82068C2.578 5.79957 2.52369 5.75511 2.48674 5.68731C2.44979 5.61951 2.44187 5.54977 2.46298 5.47809L2.48003 5.4202C3.2736 4.04815 4.37069 3.06958 5.77131 2.48449C7.17194 1.8994 8.63035 1.83013 10.1465 2.27669C10.9515 2.51377 11.6893 2.89736 12.3601 3.42745C13.0308 3.95753 13.5791 4.58788 14.0051 5.31849L15.3944 4.56829C15.53 4.49439 15.6695 4.47855 15.8128 4.52077C15.9562 4.56299 16.0648 4.65191 16.1387 4.78752C16.2126 4.92312 16.2284 5.0626 16.1862 5.20595Z" fill="#EC4A4A"/>
</svg>
